# xmcd CD database file
#
# Track frame offsets:
#	150
#	18411
#	28354
#	41300
#	60027
#	74613
#	91797
#	106031
#	123720
#	134489
#	151036
#	167806
#
# Disc length: 2405 seconds
#
# Revision: 0
# Processed by: cddbd v1.5.1PL0 Copyright (c) Steve Scherf et al.
# Submitted via: CDex 1.51
#
DISCID=9409630c
DTITLE=Jose Daniel - Country Gospel
DYEAR=2005
DGENRE=Country
TTITLE0=The Book My Mama Read
TTITLE1=The Boat
TTITLE2=Lord Would You Move This Mountain
TTITLE3=Sing Me A Song About Jesus
TTITLE4=Alex and Me
TTITLE5=It Should Have Been Me
TTITLE6=Mama's Sitting By The Window
TTITLE7=The Devil Called Cocaine
TTITLE8=Don't Give Up On Me
TTITLE9=John's Song
TTITLE10=Her Little Heart Don't Sing
TTITLE11=We're Survivors Of The Seasons
EXTD=YEAR: 2005
EXTT0=
EXTT1=
EXTT2=
EXTT3=
EXTT4=
EXTT5=
EXTT6=
EXTT7=
EXTT8=
EXTT9=
EXTT10=
EXTT11=
PLAYORDER=
